name C:\Users\u0150099\Documents\master_thesis\3dpredictsim\Results\debug\Fal_s1_mtp_sd_MTPp_k17_d05_ig24.mot
datacolumns 126
datarows 4
range 1.58523164 1.61693627
endheader
time	pelvis_tilt	pelvis_list	pelvis_rotation	pelvis_tx	pelvis_ty	pelvis_tz	hip_flexion_l	hip_adduction_l	hip_rotation_l	hip_flexion_r	hip_adduction_r	hip_rotation_r	knee_angle_l	knee_angle_r	ankle_angle_l	ankle_angle_r	subtalar_angle_l	subtalar_angle_r	mtj_angle_l	mtj_angle_r	mtp_angle_l	mtp_angle_r	lumbar_extension	lumbar_bending	lumbar_rotation	arm_flex_l	arm_add_l	arm_rot_l	arm_flex_r	arm_add_r	arm_rot_r	elbow_flex_l	elbow_flex_r	glut_med1_l/activation	glut_med2_l/activation	glut_med3_l/activation	glut_min1_l/activation	glut_min2_l/activation	glut_min3_l/activation	semimem_l/activation	semiten_l/activation	bifemlh_l/activation	bifemsh_l/activation	sar_l/activation	add_long_l/activation	add_brev_l/activation	add_mag1_l/activation	add_mag2_l/activation	add_mag3_l/activation	tfl_l/activation	pect_l/activation	grac_l/activation	glut_max1_l/activation	glut_max2_l/activation	glut_max3_l/activation	iliacus_l/activation	psoas_l/activation	quad_fem_l/activation	gem_l/activation	peri_l/activation	rect_fem_l/activation	vas_med_l/activation	vas_int_l/activation	vas_lat_l/activation	med_gas_l/activation	lat_gas_l/activation	soleus_l/activation	tib_post_l/activation	flex_dig_l/activation	flex_hal_l/activation	tib_ant_l/activation	per_brev_l/activation	per_long_l/activation	per_tert_l/activation	ext_dig_l/activation	ext_hal_l/activation	ercspn_l/activation	intobl_l/activation	extobl_l/activation	glut_med1_r/activation	glut_med2_r/activation	glut_med3_r/activation	glut_min1_r/activation	glut_min2_r/activation	glut_min3_r/activation	semimem_r/activation	semiten_r/activation	bifemlh_r/activation	bifemsh_r/activation	sar_r/activation	add_long_r/activation	add_brev_r/activation	add_mag1_r/activation	add_mag2_r/activation	add_mag3_r/activation	tfl_r/activation	pect_r/activation	grac_r/activation	glut_max1_r/activation	glut_max2_r/activation	glut_max3_r/activation	iliacus_r/activation	psoas_r/activation	quad_fem_r/activation	gem_r/activation	peri_r/activation	rect_fem_r/activation	vas_med_r/activation	vas_int_r/activation	vas_lat_r/activation	med_gas_r/activation	lat_gas_r/activation	soleus_r/activation	tib_post_r/activation	flex_dig_r/activation	flex_hal_r/activation	tib_ant_r/activation	per_brev_r/activation	per_long_r/activation	per_tert_r/activation	ext_dig_r/activation	ext_hal_r/activation	ercspn_r/activation	intobl_r/activation	extobl_r/activation	
          1.58523164	         -2.92155811	          2.21568728	         -5.20523916	          2.10835808	          0.90046197	          0.00351684	         29.94996314	          4.00227088	         -0.82323216	        -17.95160660	         -1.11760565	          7.48110663	        -12.24488792	         -7.51736445	          7.27321999	          3.83920130	         -6.18096168	         11.06239915	          0.36407317	         15.56513042	         -2.72533916	         -1.19690400	          1.93466720	        -10.48047109	        -13.54487181	          1.68717674	          6.03003396	        -13.80192924	         19.38518231	         24.78105214	         36.56773972	         86.51662706	         86.51662706	          0.07948391	          0.05000108	          0.05000033	          0.05002878	          0.05000241	          0.05000070	          0.05413584	          0.05000225	          0.25377181	          0.05000086	          0.05000151	          0.13235983	          0.17805091	          0.34218801	          0.23964340	          0.12712941	          0.05000034	          0.05095963	          0.11216831	          0.05686959	          0.09088178	          0.14603759	          0.05000127	          0.05018356	          0.55617837	          0.15504609	          0.05488137	          0.06916500	          0.19379060	          0.21836613	          0.17071360	          0.05000001	          0.05000004	          0.05000000	          0.05000144	          0.05000178	          0.05000107	          0.58284881	          0.31714614	          0.20332021	          0.49689671	          0.51340485	          0.25239125	          0.06129257	          0.07447134	          0.08049209	          0.22698114	          0.08716196	          0.06898931	          0.31826116	          0.20165374	          0.10812958	          0.05000508	          0.05000061	          0.05000052	          0.06483013	          0.09664484	          0.12119882	          0.10924505	          0.06904523	          0.05020331	          0.05004540	          0.53006167	          0.06459273	          0.05000653	          0.05000478	          0.05000364	          0.05000391	          0.29041076	          0.60512121	          0.05000193	          0.05866911	          0.05880685	          0.18307609	          0.15229545	          0.17251899	          0.13419643	          0.26373053	          0.35998853	          0.28974457	          0.26037018	          0.36516621	          0.44391026	          0.05000006	          0.05000059	          0.16138256	          0.05000017	          0.05000005	          0.05000030	          0.05722731	          0.06916487	          0.05000008	
          1.59579985	         -2.91204399	          2.41818317	         -5.50124364	          2.12545836	          0.89948557	          0.00320537	         29.28390282	          4.41439788	         -0.58896022	        -17.73972822	         -1.51028609	          7.28951031	        -12.75600735	         -9.67707517	          6.65383696	          2.90554165	         -6.52832968	         11.88966727	          0.29994342	         16.59302395	         -2.50488854	         -1.46643299	          2.03656661	        -11.33386215	        -13.49031178	          1.28113024	          5.63180307	        -13.75803161	         19.32941198	         24.37529734	         37.81153368	         86.51662706	         86.51662706	          0.32931690	          0.05000014	          0.28822686	          0.05000018	          0.05000021	          0.05000046	          0.08186048	          0.05000065	          0.21576734	          0.05000012	          0.05000061	          0.11253813	          0.32389195	          0.29094309	          0.22705687	          0.17324978	          0.05000064	          0.07326667	          0.15143073	          0.05000029	          0.14896796	          0.15223229	          0.05000056	          0.05000028	          0.47288589	          0.13182671	          0.07258195	          0.05880696	          0.16476901	          0.18566418	          0.14514793	          0.05880706	          0.05880731	          0.05880690	          0.05880683	          0.05880518	          0.05880629	          0.49556226	          0.33017231	          0.17287158	          0.42248272	          0.54207921	          0.21459355	          0.05211355	          0.06331898	          0.06843772	          0.27907016	          0.07410873	          0.05865763	          0.27059930	          0.17145442	          0.09193627	          0.05000372	          0.05000121	          0.05000109	          0.05512132	          0.08217157	          0.15715499	          0.17446266	          0.05880869	          0.05877086	          0.05921782	          0.56335838	          0.06863231	          0.05000387	          0.05008439	          0.05005814	          0.05019225	          0.24691925	          0.58065507	          0.05000200	          0.05000168	          0.05000021	          0.15565888	          0.12948982	          0.14668425	          0.11410086	          0.22423457	          0.30607711	          0.24635277	          0.22412230	          0.31048088	          0.37743277	          0.05000004	          0.05003379	          0.19205570	          0.05000017	          0.05000005	          0.05000022	          0.06830514	          0.05880684	          0.05000027	
          1.60636806	         -2.90063578	          2.62489350	         -5.76937892	          2.14268214	          0.89859361	          0.00287121	         28.50396050	          4.77892095	         -0.35505211	        -17.41075577	         -1.89646989	          7.09360706	        -13.27775040	        -12.01543142	          6.17710701	          1.75060507	         -6.87172614	         12.65477849	          0.27528524	         17.54934038	         -2.27824749	         -1.73641262	          2.12824892	        -12.14534057	        -13.46210646	          1.16352833	          5.16466163	        -13.70186987	         19.16524584	         23.90699763	         39.05431832	         86.51662706	         86.51662706	          0.37793408	          0.30833585	          0.35868656	          0.13215851	          0.13437524	          0.08712288	          0.06960184	          0.11742007	          0.18345432	          0.08134670	          0.05000173	          0.09568463	          0.27538636	          0.24737221	          0.19305518	          0.19269984	          0.05000044	          0.06229486	          0.15617091	          0.24228555	          0.19610856	          0.16454160	          0.05000016	          0.05000019	          0.40206748	          0.11208474	          0.06171270	          0.05000015	          0.14009352	          0.15785953	          0.12341086	          0.05000022	          0.05000046	          0.05000006	          0.05000004	          0.05000015	          0.05000018	          0.62269799	          0.39534193	          0.19432805	          0.66119008	          0.58730355	          0.37887346	          0.07841000	          0.08085636	          0.05818861	          0.23729103	          0.06301034	          0.05000008	          0.30759370	          0.14577773	          0.07816807	          0.05000505	          0.05000033	          0.05000028	          0.05000022	          0.06986582	          0.17528676	          0.14833643	          0.05000248	          0.05000192	          0.05035065	          0.57850836	          0.05890716	          0.05000076	          0.05000176	          0.05000102	          0.05000077	          0.20994097	          0.54231929	          0.05000011	          0.05000065	          0.05000037	          0.13234792	          0.11253954	          0.12486434	          0.11252792	          0.19065347	          0.26023938	          0.20945928	          0.19511834	          0.26398430	          0.32090954	          0.05000003	          0.08504779	          0.17693547	          0.05000019	          0.05000004	          0.05000021	          0.08034656	          0.05000003	          0.05000005	
          1.61693627	         -2.88816334	          2.82126774	         -6.00536116	          2.15982803	          0.89782658	          0.00248340	         27.71203097	          5.14122113	         -0.14266450	        -16.92508315	         -2.25842136	          6.89906516	        -13.77189368	        -14.56538868	          5.69419171	          0.33778988	         -7.21650388	         13.35090302	          0.22358672	         18.39753832	         -2.06443686	         -1.99227141	          2.21204344	        -12.87552394	        -13.45026508	          1.28658135	          4.67073597	        -13.65296769	         18.97419996	         23.37223450	         40.26788589	         86.51662706	         86.51662706	          0.48084202	          0.39592403	          0.43842914	          0.11236702	          0.11425184	          0.07407687	          0.08286685	          0.12122349	          0.15598048	          0.06916441	          0.05000053	          0.08135514	          0.25625062	          0.28190433	          0.28968919	          0.22089177	          0.05000033	          0.05296830	          0.14508717	          0.30573163	          0.23797924	          0.21269570	          0.05000017	          0.05000016	          0.34651994	          0.09529933	          0.07996226	          0.05000010	          0.21381603	          0.24139148	          0.18948745	          0.05000005	          0.05000010	          0.05000001	          0.05000008	          0.05000032	          0.05000029	          0.68497718	          0.33613605	          0.16522575	          0.71978189	          0.60913355	          0.43223607	          0.09661588	          0.06874747	          0.05000011	          0.20175487	          0.05357408	          0.05000018	          0.26152940	          0.12394635	          0.06646180	          0.05000319	          0.05000026	          0.05000030	          0.05000013	          0.05940296	          0.19663371	          0.22332787	          0.05000333	          0.07304262	          0.11252651	          0.58057016	          0.05012977	          0.05000075	          0.05000482	          0.05000372	          0.05000385	          0.17850050	          0.49174492	          0.05000032	          0.05000116	          0.05000027	          0.11252769	          0.09568598	          0.10616499	          0.09567603	          0.16210144	          0.22126626	          0.17809091	          0.16589782	          0.22445066	          0.27285078	          0.05000015	          0.07820210	          0.15043814	          0.05000024	          0.10238385	          0.05000052	          0.10562949	          0.05000005	          0.05000005	
